<svg width="22" height="19" viewBox="0 0 22 19" fill="none" xmlns="http://www.w3.org/2000/svg">
<path opacity="0.7" fill-rule="evenodd" clip-rule="evenodd" d="M3.2 2C2.53726 2 2 2.53892 2 3.2037V9.83984C2 10.5 2.5 11 3.2 11H6V13H3C0.746679 13 0 11.1677 0 8.90741V3.61111C0 1.61675 1.21177 0 3.2 0H6V2H3.2ZM19 2H11C10.4477 2 10 2.44772 10 3V16C10 16.5523 10.4477 17 11 17H19C19.5523 17 20 16.5523 20 16V3C20 2.44772 19.5523 2 19 2ZM11 0C9.34315 0 8 1.34315 8 3V16C8 17.6569 9.34315 19 11 19H19C20.6569 19 22 17.6569 22 16V3C22 1.34315 20.6569 0 19 0H11ZM15 15C16.6569 15 18 13.6569 18 12C18 10.3431 16.6569 9 15 9C13.3431 9 12 10.3431 12 12C12 13.6569 13.3431 15 15 15ZM16 6C16 6.55228 15.5523 7 15 7C14.4477 7 14 6.55228 14 6C14 5.44772 14.4477 5 15 5C15.5523 5 16 5.44772 16 6ZM6 16H3V18H6V16Z" fill="white"/>
</svg>
