<svg width="18" height="18" viewBox="0 0 18 18" fill="none" xmlns="http://www.w3.org/2000/svg">
<path fill-rule="evenodd" clip-rule="evenodd" d="M17.5 0H16.9058H16.8979H13.0909C12.4884 0 12 0.488417 12 1.09091C12 1.6934 12.4884 2.18182 13.0909 2.18182H14.2652L11.3216 5.12534C10.8928 5.5542 10.8928 6.2495 11.3216 6.67835C11.7505 7.10721 12.4458 7.10721 12.8746 6.67835L15.8182 3.73482V4.90909C15.8182 5.51158 16.3066 6 16.9091 6C17.5116 6 18 5.51158 18 4.90909V1.0982V1.09807V0.5C18 0.223858 17.7761 0 17.5 0ZM0.5 18H1.09417H1.10212H4.90909C5.51158 18 6 17.5116 6 16.9091C6 16.3066 5.51158 15.8182 4.90909 15.8182H3.73484L6.67836 12.8746C7.10721 12.4458 7.10721 11.7505 6.67836 11.3216C6.24951 10.8928 5.5542 10.8928 5.12535 11.3216L2.18182 14.2652V13.0909C2.18182 12.4884 1.6934 12 1.09091 12C0.488417 12 0 12.4884 0 13.0909V16.9018V16.9019V17.5C0 17.7761 0.223858 18 0.5 18Z" fill="white"/>
</svg>
