<svg width="20" height="21" viewBox="0 0 20 21" fill="none" xmlns="http://www.w3.org/2000/svg">
<path d="M12.5 0.22775C12.652 0.139982 12.8245 0.0937755 13 0.0937755C13.1755 0.0937755 13.348 0.139982 13.5 0.22775L19.5 3.69175C19.652 3.77952 19.7782 3.90575 19.866 4.05776C19.9538 4.20978 20 4.38222 20 4.55775V19.0938C20 19.359 19.8946 19.6133 19.7071 19.8009C19.5196 19.9884 19.2652 20.0938 19 20.0938H13C12.7348 20.0938 12.4804 19.9884 12.2929 19.8009C12.1054 19.6133 12 19.359 12 19.0938V1.09375C12 0.918218 12.0462 0.745779 12.134 0.593764C12.2217 0.44175 12.348 0.315516 12.5 0.22775ZM14 2.82575V18.0938H18V5.13475L14 2.82575ZM1 20.0938C0.734784 20.0938 0.48043 19.9884 0.292893 19.8009C0.105357 19.6133 0 19.359 0 19.0938V1.09375C0 0.828534 0.105357 0.57418 0.292893 0.386643C0.48043 0.199107 0.734784 0.09375 1 0.09375C1.26522 0.09375 1.51957 0.199107 1.70711 0.386643C1.89464 0.57418 2 0.828534 2 1.09375V19.0938C2 19.359 1.89464 19.6133 1.70711 19.8009C1.51957 19.9884 1.26522 20.0938 1 20.0938ZM7 20.0938C6.73478 20.0938 6.48043 19.9884 6.29289 19.8009C6.10536 19.6133 6 19.359 6 19.0938V1.09375C6 0.828534 6.10536 0.57418 6.29289 0.386643C6.48043 0.199107 6.73478 0.09375 7 0.09375C7.26522 0.09375 7.51957 0.199107 7.70711 0.386643C7.89464 0.57418 8 0.828534 8 1.09375V19.0938C8 19.359 7.89464 19.6133 7.70711 19.8009C7.51957 19.9884 7.26522 20.0938 7 20.0938Z" fill="white" fill-opacity="0.7"/>
</svg>
