<svg width="22" height="22" viewBox="0 0 22 22" fill="none" xmlns="http://www.w3.org/2000/svg">
<path d="M9.53298 0.372704C4.35298 0.372704 0.125977 4.5127 0.125977 9.6517C0.125977 14.7907 4.35198 18.9307 9.53298 18.9307C11.767 18.9307 13.823 18.1607 15.44 16.8727L19.793 21.2257C19.8852 21.3212 19.9956 21.3974 20.1176 21.4498C20.2396 21.5022 20.3708 21.5298 20.5036 21.531C20.6364 21.5321 20.768 21.5068 20.8909 21.4565C21.0138 21.4062 21.1255 21.332 21.2194 21.2381C21.3133 21.1442 21.3875 21.0326 21.4378 20.9097C21.4881 20.7868 21.5134 20.6551 21.5122 20.5223C21.5111 20.3895 21.4835 20.2583 21.4311 20.1363C21.3787 20.0143 21.3025 19.904 21.207 19.8117L16.863 15.4677C18.2079 13.828 18.942 11.7724 18.94 9.6517C18.94 4.5117 14.714 0.371704 9.53298 0.371704V0.372704ZM2.12598 9.6517C2.12598 5.6457 5.42798 2.3717 9.53298 2.3717C13.638 2.3717 16.94 5.6457 16.94 9.6517C16.94 13.6577 13.638 16.9307 9.53298 16.9307C5.42798 16.9307 2.12598 13.6587 2.12598 9.6517Z" fill="white" fill-opacity="0.7"/>
</svg>
