<svg width="21" height="19" viewBox="0 0 21 19" fill="none" xmlns="http://www.w3.org/2000/svg">
<path opacity="0.7" fill-rule="evenodd" clip-rule="evenodd" d="M10.1385 2.74993L3.47894 6.6673C1.50702 7.82725 1.50702 10.679 3.47894 11.8389L10.1385 15.7563V2.74993ZM2.4649 4.94343C-0.821633 6.87669 -0.821633 11.6295 2.4649 13.5628L10.6314 18.3666C11.2981 18.7588 12.1385 18.2781 12.1385 17.5047V1.00152C12.1385 0.228102 11.2981 -0.252554 10.6314 0.139583L2.4649 4.94343ZM13.1387 2.25317C14.1236 2.25317 15.0989 2.44717 16.0088 2.82408C16.9187 3.20099 17.7455 3.75343 18.442 4.44987C19.1384 5.14631 19.6909 5.97311 20.0678 6.88305C20.4447 7.79299 20.6387 8.76826 20.6387 9.75317C20.6387 10.7381 20.4447 11.7134 20.0678 12.6233C19.6909 13.5332 19.1384 14.36 18.442 15.0565C17.7455 15.7529 16.9187 16.3054 16.0088 16.6823C15.0989 17.0592 14.1236 17.2532 13.1387 17.2532V15.2443C13.8598 15.2443 14.5738 15.1022 15.24 14.8263C15.9062 14.5503 16.5116 14.1459 17.0215 13.636C17.5314 13.1261 17.9358 12.5207 18.2118 11.8545C18.4877 11.1883 18.6298 10.4743 18.6298 9.75317C18.6298 9.03207 18.4877 8.31803 18.2118 7.65182C17.9358 6.98561 17.5314 6.38028 17.0215 5.87038C16.5116 5.36049 15.9062 4.95602 15.24 4.68006C14.5738 4.40411 13.8598 4.26208 13.1387 4.26208V2.25317ZM15.3311 7.53625C14.7997 6.89547 14.053 6.44314 13.213 6.25317L13.1387 13.2532C13.9826 13.079 14.7387 12.6408 15.2836 12.0101C15.8285 11.3795 16.1299 10.5936 16.1385 9.78101C16.1471 8.96839 15.8625 8.17704 15.3311 7.53625Z" fill="white"/>
</svg>
